<?xml version="1.0" encoding="UTF-8" standalone="no"?>
<!DOCTYPE svg PUBLIC "-//W3C//DTD SVG 1.1//EN"
 "http://www.w3.org/Graphics/SVG/1.1/DTD/svg11.dtd">
<!-- Generated by graphviz version 2.28.0 (20130928.0220)
 -->
<!-- Title: Graphing Pages: 1 -->
<svg width="1196pt" height="272pt"
 viewBox="0.00 0.00 1196.00 272.00" xmlns="http://www.w3.org/2000/svg" xmlns:xlink="http://www.w3.org/1999/xlink">
<g id="graph1" class="graph" transform="scale(1 1) rotate(0) translate(4 268)">
<title>Graphing</title>
<polygon fill="white" stroke="white" points="-4,5 -4,-268 1193,-268 1193,5 -4,5"/>
<!-- Credit0 -->
<g id="node1" class="node"><title>Credit0</title>
<ellipse fill="none" stroke="black" cx="83" cy="-57" rx="38.824" ry="38.824"/>
<ellipse fill="none" stroke="black" cx="83" cy="-57" rx="42.8154" ry="42.8154"/>
<text text-anchor="middle" x="83" y="-52.4" font-family="Times,serif" font-size="14.00">Credit0</text>
</g>
<!-- Credit0Coin25 -->
<g id="node3" class="node"><title>Credit0Coin25</title>
<ellipse fill="none" stroke="black" cx="201" cy="-123" rx="38.8154" ry="18"/>
<text text-anchor="middle" x="201" y="-118.4" font-family="Times,serif" font-size="14.00">Coin25</text>
</g>
<!-- Credit0&#45;&gt;Credit0Coin25 -->
<g id="edge4" class="edge"><title>Credit0&#45;&gt;Credit0Coin25</title>
<path fill="none" stroke="black" d="M120.703,-77.8828C135.404,-86.2473 152.225,-95.8179 166.581,-103.986"/>
<polygon fill="black" stroke="black" points="165.189,-107.221 175.612,-109.124 168.651,-101.137 165.189,-107.221"/>
</g>
<!-- Credit0Coin50 -->
<g id="node4" class="node"><title>Credit0Coin50</title>
<ellipse fill="none" stroke="black" cx="201" cy="-57" rx="38.8154" ry="18"/>
<text text-anchor="middle" x="201" y="-52.4" font-family="Times,serif" font-size="14.00">Coin50</text>
</g>
<!-- Credit0&#45;&gt;Credit0Coin50 -->
<g id="edge8" class="edge"><title>Credit0&#45;&gt;Credit0Coin50</title>
<path fill="none" stroke="black" d="M126.207,-57C134.497,-57 143.252,-57 151.723,-57"/>
<polygon fill="black" stroke="black" points="151.864,-60.5001 161.864,-57 151.864,-53.5001 151.864,-60.5001"/>
</g>
<!-- START -->
<g id="node2" class="node"><title>START</title>
<ellipse fill="black" stroke="black" cx="2" cy="-57" rx="1.8" ry="1.8"/>
</g>
<!-- START&#45;&gt;Credit0 -->
<g id="edge2" class="edge"><title>START&#45;&gt;Credit0</title>
<path fill="none" stroke="black" d="M3.88721,-57C6.91015,-57 17.3033,-57 29.5658,-57"/>
<polygon fill="black" stroke="black" points="29.6959,-60.5001 39.6958,-57 29.6958,-53.5001 29.6959,-60.5001"/>
</g>
<!-- Credit25 -->
<g id="node5" class="node"><title>Credit25</title>
<ellipse fill="none" stroke="black" cx="320" cy="-146" rx="43.7069" ry="18"/>
<text text-anchor="middle" x="320" y="-141.4" font-family="Times,serif" font-size="14.00">Credit25</text>
</g>
<!-- Credit0Coin25&#45;&gt;Credit25 -->
<g id="edge6" class="edge"><title>Credit0Coin25&#45;&gt;Credit25</title>
<path fill="none" stroke="black" d="M237.104,-129.901C247.514,-131.947 259.107,-134.226 270.219,-136.411"/>
<polygon fill="black" stroke="black" points="269.754,-139.886 280.241,-138.381 271.104,-133.018 269.754,-139.886"/>
</g>
<!-- Credit0Credit50 -->
<g id="node8" class="node"><title>Credit0Credit50</title>
<ellipse fill="none" stroke="black" cx="558" cy="-57" rx="43.7069" ry="18"/>
<text text-anchor="middle" x="558" y="-52.4" font-family="Times,serif" font-size="14.00">Credit50</text>
</g>
<!-- Credit0Coin50&#45;&gt;Credit0Credit50 -->
<g id="edge10" class="edge"><title>Credit0Coin50&#45;&gt;Credit0Credit50</title>
<path fill="none" stroke="black" d="M239.991,-57C303.582,-57 431.706,-57 504.084,-57"/>
<polygon fill="black" stroke="black" points="504.344,-60.5001 514.344,-57 504.344,-53.5001 504.344,-60.5001"/>
</g>
<!-- Credit25Coin25 -->
<g id="node6" class="node"><title>Credit25Coin25</title>
<ellipse fill="none" stroke="black" cx="439" cy="-200" rx="38.8154" ry="18"/>
<text text-anchor="middle" x="439" y="-195.4" font-family="Times,serif" font-size="14.00">Coin25</text>
</g>
<!-- Credit25&#45;&gt;Credit25Coin25 -->
<g id="edge12" class="edge"><title>Credit25&#45;&gt;Credit25Coin25</title>
<path fill="none" stroke="black" d="M349.621,-159.21C365.23,-166.414 384.718,-175.408 401.419,-183.116"/>
<polygon fill="black" stroke="black" points="400.334,-186.47 410.88,-187.483 403.267,-180.115 400.334,-186.47"/>
</g>
<!-- Credit25Coin50 -->
<g id="node7" class="node"><title>Credit25Coin50</title>
<ellipse fill="none" stroke="black" cx="439" cy="-146" rx="38.8154" ry="18"/>
<text text-anchor="middle" x="439" y="-141.4" font-family="Times,serif" font-size="14.00">Coin50</text>
</g>
<!-- Credit25&#45;&gt;Credit25Coin50 -->
<g id="edge16" class="edge"><title>Credit25&#45;&gt;Credit25Coin50</title>
<path fill="none" stroke="black" d="M363.902,-146C372.248,-146 381.051,-146 389.561,-146"/>
<polygon fill="black" stroke="black" points="389.746,-149.5 399.745,-146 389.745,-142.5 389.746,-149.5"/>
</g>
<!-- Credit25Credit50 -->
<g id="node11" class="node"><title>Credit25Credit50</title>
<ellipse fill="none" stroke="black" cx="558" cy="-200" rx="43.7069" ry="18"/>
<text text-anchor="middle" x="558" y="-195.4" font-family="Times,serif" font-size="14.00">Credit50</text>
</g>
<!-- Credit25Coin25&#45;&gt;Credit25Credit50 -->
<g id="edge14" class="edge"><title>Credit25Coin25&#45;&gt;Credit25Credit50</title>
<path fill="none" stroke="black" d="M477.987,-200C486.331,-200 495.314,-200 504.124,-200"/>
<polygon fill="black" stroke="black" points="504.34,-203.5 514.34,-200 504.34,-196.5 504.34,-203.5"/>
</g>
<!-- Credit25Credit75 -->
<g id="node14" class="node"><title>Credit25Credit75</title>
<ellipse fill="none" stroke="black" cx="558" cy="-146" rx="43.7069" ry="18"/>
<text text-anchor="middle" x="558" y="-141.4" font-family="Times,serif" font-size="14.00">Credit75</text>
</g>
<!-- Credit25Coin50&#45;&gt;Credit25Credit75 -->
<g id="edge18" class="edge"><title>Credit25Coin50&#45;&gt;Credit25Credit75</title>
<path fill="none" stroke="black" d="M477.987,-146C486.331,-146 495.314,-146 504.124,-146"/>
<polygon fill="black" stroke="black" points="504.34,-149.5 514.34,-146 504.34,-142.5 504.34,-149.5"/>
</g>
<!-- Credit0Credit50Coin25 -->
<g id="node9" class="node"><title>Credit0Credit50Coin25</title>
<ellipse fill="none" stroke="black" cx="677" cy="-92" rx="38.8154" ry="18"/>
<text text-anchor="middle" x="677" y="-87.4" font-family="Times,serif" font-size="14.00">Coin25</text>
</g>
<!-- Credit0Credit50&#45;&gt;Credit0Credit50Coin25 -->
<g id="edge20" class="edge"><title>Credit0Credit50&#45;&gt;Credit0Credit50Coin25</title>
<path fill="none" stroke="black" d="M593.787,-67.4064C606.455,-71.1959 620.909,-75.5197 634.127,-79.4739"/>
<polygon fill="black" stroke="black" points="633.361,-82.8979 643.945,-82.4108 635.367,-76.1916 633.361,-82.8979"/>
</g>
<!-- Credit0Credit50Coin50 -->
<g id="node10" class="node"><title>Credit0Credit50Coin50</title>
<ellipse fill="none" stroke="black" cx="796" cy="-46" rx="38.8154" ry="18"/>
<text text-anchor="middle" x="796" y="-41.4" font-family="Times,serif" font-size="14.00">Coin50</text>
</g>
<!-- Credit0Credit50&#45;&gt;Credit0Credit50Coin50 -->
<g id="edge24" class="edge"><title>Credit0Credit50&#45;&gt;Credit0Credit50Coin50</title>
<path fill="none" stroke="black" d="M601.465,-55.0207C642.412,-53.1121 704.296,-50.2277 747.009,-48.2369"/>
<polygon fill="black" stroke="black" points="747.335,-51.7256 757.161,-47.7637 747.009,-44.7332 747.335,-51.7256"/>
</g>
<!-- Credit0Credit50Credit75 -->
<g id="node16" class="node"><title>Credit0Credit50Credit75</title>
<ellipse fill="none" stroke="black" cx="796" cy="-100" rx="43.7069" ry="18"/>
<text text-anchor="middle" x="796" y="-95.4" font-family="Times,serif" font-size="14.00">Credit75</text>
</g>
<!-- Credit0Credit50Coin25&#45;&gt;Credit0Credit50Credit75 -->
<g id="edge22" class="edge"><title>Credit0Credit50Coin25&#45;&gt;Credit0Credit50Credit75</title>
<path fill="none" stroke="black" d="M715.664,-94.5753C724.303,-95.166 733.64,-95.8044 742.771,-96.4288"/>
<polygon fill="black" stroke="black" points="742.728,-99.9339 752.944,-97.1244 743.206,-92.9502 742.728,-99.9339"/>
</g>
<!-- Credit100 -->
<g id="node20" class="node"><title>Credit100</title>
<ellipse fill="none" stroke="black" cx="1039" cy="-123" rx="48.099" ry="18"/>
<text text-anchor="middle" x="1039" y="-118.4" font-family="Times,serif" font-size="14.00">Credit100</text>
</g>
<!-- Credit0Credit50Coin50&#45;&gt;Credit100 -->
<g id="edge26" class="edge"><title>Credit0Credit50Coin50&#45;&gt;Credit100</title>
<path fill="none" stroke="black" d="M834.797,-48.6019C867.239,-51.7432 914.822,-58.5383 954,-73 972.899,-79.9761 992.332,-91.2329 1007.74,-101.301"/>
<polygon fill="black" stroke="black" points="1006.06,-104.387 1016.31,-107.05 1009.96,-98.5732 1006.06,-104.387"/>
</g>
<!-- Credit25Credit50Coin25 -->
<g id="node12" class="node"><title>Credit25Credit50Coin25</title>
<ellipse fill="none" stroke="black" cx="677" cy="-246" rx="38.8154" ry="18"/>
<text text-anchor="middle" x="677" y="-241.4" font-family="Times,serif" font-size="14.00">Coin25</text>
</g>
<!-- Credit25Credit50&#45;&gt;Credit25Credit50Coin25 -->
<g id="edge28" class="edge"><title>Credit25Credit50&#45;&gt;Credit25Credit50Coin25</title>
<path fill="none" stroke="black" d="M590.047,-212.206C604.486,-217.883 621.81,-224.695 637.111,-230.71"/>
<polygon fill="black" stroke="black" points="636.235,-234.127 646.822,-234.528 638.797,-227.612 636.235,-234.127"/>
</g>
<!-- Credit25Credit50Coin50 -->
<g id="node13" class="node"><title>Credit25Credit50Coin50</title>
<ellipse fill="none" stroke="black" cx="915" cy="-192" rx="38.8154" ry="18"/>
<text text-anchor="middle" x="915" y="-187.4" font-family="Times,serif" font-size="14.00">Coin50</text>
</g>
<!-- Credit25Credit50&#45;&gt;Credit25Credit50Coin50 -->
<g id="edge32" class="edge"><title>Credit25Credit50&#45;&gt;Credit25Credit50Coin50</title>
<path fill="none" stroke="black" d="M601.821,-199.035C668.301,-197.537 795.926,-194.661 865.635,-193.09"/>
<polygon fill="black" stroke="black" points="865.978,-196.583 875.897,-192.859 865.821,-189.585 865.978,-196.583"/>
</g>
<!-- Credit25Credit50Credit75 -->
<g id="node18" class="node"><title>Credit25Credit50Credit75</title>
<ellipse fill="none" stroke="black" cx="796" cy="-246" rx="43.7069" ry="18"/>
<text text-anchor="middle" x="796" y="-241.4" font-family="Times,serif" font-size="14.00">Credit75</text>
</g>
<!-- Credit25Credit50Coin25&#45;&gt;Credit25Credit50Credit75 -->
<g id="edge30" class="edge"><title>Credit25Credit50Coin25&#45;&gt;Credit25Credit50Credit75</title>
<path fill="none" stroke="black" d="M715.987,-246C724.331,-246 733.314,-246 742.124,-246"/>
<polygon fill="black" stroke="black" points="742.34,-249.5 752.34,-246 742.34,-242.5 742.34,-249.5"/>
</g>
<!-- Credit25Credit50Coin50&#45;&gt;Credit100 -->
<g id="edge34" class="edge"><title>Credit25Credit50Coin50&#45;&gt;Credit100</title>
<path fill="none" stroke="black" d="M940.395,-178.203C958.244,-168.108 982.729,-154.26 1002.71,-142.959"/>
<polygon fill="black" stroke="black" points="1004.55,-145.939 1011.53,-137.969 1001.11,-139.846 1004.55,-145.939"/>
</g>
<!-- Credit25Credit75Coin25 -->
<g id="node15" class="node"><title>Credit25Credit75Coin25</title>
<ellipse fill="none" stroke="black" cx="677" cy="-146" rx="38.8154" ry="18"/>
<text text-anchor="middle" x="677" y="-141.4" font-family="Times,serif" font-size="14.00">Coin25</text>
</g>
<!-- Credit25Credit75&#45;&gt;Credit25Credit75Coin25 -->
<g id="edge36" class="edge"><title>Credit25Credit75&#45;&gt;Credit25Credit75Coin25</title>
<path fill="none" stroke="black" d="M601.902,-146C610.248,-146 619.051,-146 627.561,-146"/>
<polygon fill="black" stroke="black" points="627.746,-149.5 637.745,-146 627.745,-142.5 627.746,-149.5"/>
</g>
<!-- Credit25Credit75Coin25&#45;&gt;Credit100 -->
<g id="edge38" class="edge"><title>Credit25Credit75Coin25&#45;&gt;Credit100</title>
<path fill="none" stroke="black" d="M715.846,-143.582C779.208,-139.534 907.094,-131.363 981.26,-126.625"/>
<polygon fill="black" stroke="black" points="981.6,-130.111 991.356,-125.98 981.154,-123.125 981.6,-130.111"/>
</g>
<!-- Credit0Credit50Credit75Coin25 -->
<g id="node17" class="node"><title>Credit0Credit50Credit75Coin25</title>
<ellipse fill="none" stroke="black" cx="915" cy="-100" rx="38.8154" ry="18"/>
<text text-anchor="middle" x="915" y="-95.4" font-family="Times,serif" font-size="14.00">Coin25</text>
</g>
<!-- Credit0Credit50Credit75&#45;&gt;Credit0Credit50Credit75Coin25 -->
<g id="edge40" class="edge"><title>Credit0Credit50Credit75&#45;&gt;Credit0Credit50Credit75Coin25</title>
<path fill="none" stroke="black" d="M839.902,-100C848.248,-100 857.051,-100 865.561,-100"/>
<polygon fill="black" stroke="black" points="865.746,-103.5 875.745,-100 865.745,-96.5001 865.746,-103.5"/>
</g>
<!-- Credit0Credit50Credit75Coin25&#45;&gt;Credit100 -->
<g id="edge42" class="edge"><title>Credit0Credit50Credit75Coin25&#45;&gt;Credit100</title>
<path fill="none" stroke="black" d="M951.287,-106.653C961.956,-108.664 973.908,-110.917 985.449,-113.093"/>
<polygon fill="black" stroke="black" points="984.967,-116.564 995.443,-114.977 986.264,-109.685 984.967,-116.564"/>
</g>
<!-- Credit25Credit50Credit75Coin25 -->
<g id="node19" class="node"><title>Credit25Credit50Credit75Coin25</title>
<ellipse fill="none" stroke="black" cx="915" cy="-246" rx="38.8154" ry="18"/>
<text text-anchor="middle" x="915" y="-241.4" font-family="Times,serif" font-size="14.00">Coin25</text>
</g>
<!-- Credit25Credit50Credit75&#45;&gt;Credit25Credit50Credit75Coin25 -->
<g id="edge44" class="edge"><title>Credit25Credit50Credit75&#45;&gt;Credit25Credit50Credit75Coin25</title>
<path fill="none" stroke="black" d="M839.902,-246C848.248,-246 857.051,-246 865.561,-246"/>
<polygon fill="black" stroke="black" points="865.746,-249.5 875.745,-246 865.745,-242.5 865.746,-249.5"/>
</g>
<!-- Credit25Credit50Credit75Coin25&#45;&gt;Credit100 -->
<g id="edge46" class="edge"><title>Credit25Credit50Credit75Coin25&#45;&gt;Credit100</title>
<path fill="none" stroke="black" d="M938.375,-231.418C943.684,-227.606 949.197,-223.341 954,-219 978.261,-197.075 1002.48,-168.505 1018.63,-148.249"/>
<polygon fill="black" stroke="black" points="1021.39,-150.409 1024.83,-140.389 1015.89,-146.075 1021.39,-150.409"/>
</g>
<!-- Vend -->
<g id="node21" class="node"><title>Vend</title>
<ellipse fill="none" stroke="black" cx="1156" cy="-61" rx="32.4" ry="18"/>
<text text-anchor="middle" x="1156" y="-56.4" font-family="Times,serif" font-size="14.00">Vend</text>
</g>
<!-- Credit100&#45;&gt;Vend -->
<g id="edge48" class="edge"><title>Credit100&#45;&gt;Vend</title>
<path fill="none" stroke="black" d="M1067.25,-108.307C1083.95,-99.3031 1105.41,-87.7337 1122.93,-78.2901"/>
<polygon fill="black" stroke="black" points="1125.06,-81.1184 1132.2,-73.292 1121.74,-74.9569 1125.06,-81.1184"/>
</g>
<!-- Vend&#45;&gt;Credit0 -->
<g id="edge50" class="edge"><title>Vend&#45;&gt;Credit0</title>
<path fill="none" stroke="black" d="M1130.07,-50.2348C1087.18,-32.7229 996.294,-7.10543e-15 916,-0 319,-0 319,-0 319,-0 253.154,-7.10543e-15 179.781,-21.3958 132.821,-37.9703"/>
<polygon fill="black" stroke="black" points="131.439,-34.7476 123.213,-41.4245 133.807,-41.3349 131.439,-34.7476"/>
</g>
</g>
</svg>
