<?xml version="1.0" encoding="UTF-8" standalone="no"?>
<!DOCTYPE svg PUBLIC "-//W3C//DTD SVG 1.1//EN"
 "http://www.w3.org/Graphics/SVG/1.1/DTD/svg11.dtd">
<!-- Generated by graphviz version 2.28.0 (20130928.0220)
 -->
<!-- Title: Graphing Pages: 1 -->
<svg width="452pt" height="98pt"
 viewBox="0.00 0.00 452.00 98.00" xmlns="http://www.w3.org/2000/svg" xmlns:xlink="http://www.w3.org/1999/xlink">
<g id="graph1" class="graph" transform="scale(1 1) rotate(0) translate(4 94)">
<title>Graphing</title>
<polygon fill="white" stroke="white" points="-4,5 -4,-94 449,-94 449,5 -4,5"/>
<!-- c208037e20 -->
<g id="node1" class="node"><title>c208037e20</title>
<ellipse fill="none" stroke="black" cx="422" cy="-45" rx="18" ry="18"/>
<ellipse fill="none" stroke="black" cx="422" cy="-45" rx="22" ry="22"/>
<text text-anchor="middle" x="422" y="-40.4" font-family="Times,serif" font-size="14.00">f</text>
</g>
<!-- START -->
<g id="node2" class="node"><title>START</title>
<ellipse fill="black" stroke="black" cx="2" cy="-45" rx="1.8" ry="1.8"/>
</g>
<!-- c208037de0 -->
<g id="node3" class="node"><title>c208037de0</title>
<ellipse fill="none" stroke="black" cx="67" cy="-45" rx="27" ry="18"/>
<text text-anchor="middle" x="67" y="-40.4" font-family="Times,serif" font-size="14.00">a</text>
</g>
<!-- START&#45;&gt;c208037de0 -->
<g id="edge2" class="edge"><title>START&#45;&gt;c208037de0</title>
<path fill="none" stroke="black" d="M4.09348,-45C7.45505,-45 18.1107,-45 29.6558,-45"/>
<polygon fill="black" stroke="black" points="29.8695,-48.5001 39.8695,-45 29.8695,-41.5001 29.8695,-48.5001"/>
</g>
<!-- c208037e40 -->
<g id="node4" class="node"><title>c208037e40</title>
<ellipse fill="none" stroke="black" cx="157" cy="-68" rx="27" ry="18"/>
<text text-anchor="middle" x="157" y="-63.4" font-family="Times,serif" font-size="14.00">b</text>
</g>
<!-- c208037de0&#45;&gt;c208037e40 -->
<g id="edge4" class="edge"><title>c208037de0&#45;&gt;c208037e40</title>
<path fill="none" stroke="black" stroke-dasharray="1,5" d="M92.5129,-51.4068C101.572,-53.7744 112.012,-56.503 121.775,-59.0548"/>
<polygon fill="black" stroke="black" points="121.058,-62.4851 131.619,-61.6276 122.829,-55.7126 121.058,-62.4851"/>
</g>
<!-- c208037e00 -->
<g id="node5" class="node"><title>c208037e00</title>
<ellipse fill="none" stroke="black" cx="247" cy="-45" rx="27" ry="18"/>
<text text-anchor="middle" x="247" y="-40.4" font-family="Times,serif" font-size="14.00">c</text>
</g>
<!-- c208037de0&#45;&gt;c208037e00 -->
<g id="edge8" class="edge"><title>c208037de0&#45;&gt;c208037e00</title>
<path fill="none" stroke="black" d="M93.9246,-42.9538C105.026,-42.1744 118.141,-41.3821 130,-41 153.988,-40.227 160.012,-40.227 184,-41 192.431,-41.2717 201.496,-41.7506 210.022,-42.2849"/>
<polygon fill="black" stroke="black" points="209.865,-45.7821 220.075,-42.9538 210.33,-38.7975 209.865,-45.7821"/>
</g>
<!-- c208037e40&#45;&gt;c208037e00 -->
<g id="edge6" class="edge"><title>c208037e40&#45;&gt;c208037e00</title>
<path fill="none" stroke="black" stroke-dasharray="1,5" d="M182.513,-61.5932C191.572,-59.2256 202.012,-56.497 211.775,-53.9452"/>
<polygon fill="black" stroke="black" points="212.829,-57.2874 221.619,-51.3724 211.058,-50.5149 212.829,-57.2874"/>
</g>
<!-- c208037e60 -->
<g id="node6" class="node"><title>c208037e60</title>
<ellipse fill="none" stroke="black" cx="337" cy="-72" rx="27" ry="18"/>
<text text-anchor="middle" x="337" y="-67.4" font-family="Times,serif" font-size="14.00">d</text>
</g>
<!-- c208037e00&#45;&gt;c208037e60 -->
<g id="edge10" class="edge"><title>c208037e00&#45;&gt;c208037e60</title>
<path fill="none" stroke="black" d="M272.046,-52.3779C281.435,-55.2586 292.362,-58.6112 302.5,-61.7215"/>
<polygon fill="black" stroke="black" points="301.701,-65.1373 312.287,-64.7245 303.754,-58.4452 301.701,-65.1373"/>
</g>
<!-- c208037e80 -->
<g id="node7" class="node"><title>c208037e80</title>
<ellipse fill="none" stroke="black" cx="337" cy="-18" rx="27" ry="18"/>
<text text-anchor="middle" x="337" y="-13.4" font-family="Times,serif" font-size="14.00">e</text>
</g>
<!-- c208037e00&#45;&gt;c208037e80 -->
<g id="edge12" class="edge"><title>c208037e00&#45;&gt;c208037e80</title>
<path fill="none" stroke="black" d="M272.046,-37.6221C281.435,-34.7414 292.362,-31.3888 302.5,-28.2785"/>
<polygon fill="black" stroke="black" points="303.754,-31.5548 312.287,-25.2755 301.701,-24.8627 303.754,-31.5548"/>
</g>
<!-- c208037e60&#45;&gt;c208037e20 -->
<g id="edge14" class="edge"><title>c208037e60&#45;&gt;c208037e20</title>
<path fill="none" stroke="black" d="M361.562,-64.3351C370.74,-61.3498 381.366,-57.893 391.074,-54.735"/>
<polygon fill="black" stroke="black" points="392.332,-58.0063 400.759,-51.5844 390.167,-51.3496 392.332,-58.0063"/>
</g>
<!-- c208037e80&#45;&gt;c208037e20 -->
<g id="edge16" class="edge"><title>c208037e80&#45;&gt;c208037e20</title>
<path fill="none" stroke="black" d="M361.562,-25.6649C370.74,-28.6502 381.366,-32.107 391.074,-35.265"/>
<polygon fill="black" stroke="black" points="390.167,-38.6504 400.759,-38.4156 392.332,-31.9937 390.167,-38.6504"/>
</g>
</g>
</svg>
