<?xml version="1.0" encoding="UTF-8" standalone="no"?>
<!DOCTYPE svg PUBLIC "-//W3C//DTD SVG 1.1//EN"
 "http://www.w3.org/Graphics/SVG/1.1/DTD/svg11.dtd">
<!-- Generated by graphviz version 2.28.0 (20130928.0220)
 -->
<!-- Title: Graphing Pages: 1 -->
<svg width="524pt" height="68pt"
 viewBox="0.00 0.00 524.00 68.00" xmlns="http://www.w3.org/2000/svg" xmlns:xlink="http://www.w3.org/1999/xlink">
<g id="graph1" class="graph" transform="scale(1 1) rotate(0) translate(4 64)">
<title>Graphing</title>
<polygon fill="white" stroke="white" points="-4,5 -4,-64 521,-64 521,5 -4,5"/>
<!-- c208037790 -->
<g id="node1" class="node"><title>c208037790</title>
<ellipse fill="none" stroke="black" cx="486" cy="-30" rx="26.3033" ry="26.3033"/>
<ellipse fill="none" stroke="black" cx="486" cy="-30" rx="30.3249" ry="30.3249"/>
<text text-anchor="middle" x="486" y="-25.4" font-family="Times,serif" font-size="14.00">Idle</text>
</g>
<!-- c208037760 -->
<g id="node2" class="node"><title>c208037760</title>
<ellipse fill="none" stroke="black" cx="278" cy="-30" rx="26.3033" ry="26.3033"/>
<ellipse fill="none" stroke="black" cx="278" cy="-30" rx="30.3249" ry="30.3249"/>
<text text-anchor="middle" x="278" y="-25.4" font-family="Times,serif" font-size="14.00">Idle</text>
</g>
<!-- c208037780 -->
<g id="node6" class="node"><title>c208037780</title>
<ellipse fill="none" stroke="black" cx="382" cy="-30" rx="37.632" ry="18"/>
<text text-anchor="middle" x="382" y="-25.4" font-family="Times,serif" font-size="14.00">Action</text>
</g>
<!-- c208037760&#45;&gt;c208037780 -->
<g id="edge6" class="edge"><title>c208037760&#45;&gt;c208037780</title>
<path fill="none" stroke="black" stroke-dasharray="1,5" d="M308.229,-30C316.268,-30 325.196,-30 333.967,-30"/>
<polygon fill="black" stroke="black" points="334.127,-33.5001 344.127,-30 334.127,-26.5001 334.127,-33.5001"/>
</g>
<!-- c208037700 -->
<g id="node3" class="node"><title>c208037700</title>
<ellipse fill="none" stroke="black" cx="70" cy="-30" rx="26.3033" ry="26.3033"/>
<ellipse fill="none" stroke="black" cx="70" cy="-30" rx="30.3249" ry="30.3249"/>
<text text-anchor="middle" x="70" y="-25.4" font-family="Times,serif" font-size="14.00">Idle</text>
</g>
<!-- c208037750 -->
<g id="node5" class="node"><title>c208037750</title>
<ellipse fill="none" stroke="black" cx="174" cy="-30" rx="37.632" ry="18"/>
<text text-anchor="middle" x="174" y="-25.4" font-family="Times,serif" font-size="14.00">Action</text>
</g>
<!-- c208037700&#45;&gt;c208037750 -->
<g id="edge10" class="edge"><title>c208037700&#45;&gt;c208037750</title>
<path fill="none" stroke="black" stroke-dasharray="1,5" d="M100.229,-30C108.268,-30 117.196,-30 125.967,-30"/>
<polygon fill="black" stroke="black" points="126.127,-33.5001 136.127,-30 126.127,-26.5001 126.127,-33.5001"/>
</g>
<!-- START -->
<g id="node4" class="node"><title>START</title>
<ellipse fill="black" stroke="black" cx="2" cy="-30" rx="1.8" ry="1.8"/>
</g>
<!-- START&#45;&gt;c208037700 -->
<g id="edge2" class="edge"><title>START&#45;&gt;c208037700</title>
<path fill="none" stroke="black" d="M4.14555,-30C7.50832,-30 17.8386,-30 29.2946,-30"/>
<polygon fill="black" stroke="black" points="29.5048,-33.5001 39.5048,-30 29.5048,-26.5001 29.5048,-33.5001"/>
</g>
<!-- c208037750&#45;&gt;c208037760 -->
<g id="edge8" class="edge"><title>c208037750&#45;&gt;c208037760</title>
<path fill="none" stroke="black" d="M211.824,-30C220.182,-30 229.09,-30 237.551,-30"/>
<polygon fill="black" stroke="black" points="237.583,-33.5001 247.583,-30 237.583,-26.5001 237.583,-33.5001"/>
</g>
<!-- c208037780&#45;&gt;c208037790 -->
<g id="edge4" class="edge"><title>c208037780&#45;&gt;c208037790</title>
<path fill="none" stroke="black" d="M419.824,-30C428.182,-30 437.09,-30 445.551,-30"/>
<polygon fill="black" stroke="black" points="445.583,-33.5001 455.583,-30 445.583,-26.5001 445.583,-33.5001"/>
</g>
</g>
</svg>
