<?xml version="1.0" encoding="UTF-8" standalone="no"?>
<!DOCTYPE svg PUBLIC "-//W3C//DTD SVG 1.1//EN"
 "http://www.w3.org/Graphics/SVG/1.1/DTD/svg11.dtd">
<!-- Generated by graphviz version 2.28.0 (20130928.0220)
 -->
<!-- Title: Graphing Pages: 1 -->
<svg width="220pt" height="68pt"
 viewBox="0.00 0.00 220.00 68.00" xmlns="http://www.w3.org/2000/svg" xmlns:xlink="http://www.w3.org/1999/xlink">
<g id="graph1" class="graph" transform="scale(1 1) rotate(0) translate(4 64)">
<title>Graphing</title>
<polygon fill="white" stroke="white" points="-4,5 -4,-64 217,-64 217,5 -4,5"/>
<!-- Idle -->
<g id="node1" class="node"><title>Idle</title>
<ellipse fill="none" stroke="black" cx="70" cy="-30" rx="26.3033" ry="26.3033"/>
<ellipse fill="none" stroke="black" cx="70" cy="-30" rx="30.3249" ry="30.3249"/>
<text text-anchor="middle" x="70" y="-25.4" font-family="Times,serif" font-size="14.00">Idle</text>
</g>
<!-- Action -->
<g id="node3" class="node"><title>Action</title>
<ellipse fill="none" stroke="black" cx="174" cy="-30" rx="37.632" ry="18"/>
<text text-anchor="middle" x="174" y="-25.4" font-family="Times,serif" font-size="14.00">Action</text>
</g>
<!-- Idle&#45;&gt;Action -->
<g id="edge4" class="edge"><title>Idle&#45;&gt;Action</title>
<path fill="none" stroke="black" d="M99.6841,-23.8607C108.693,-23.3349 118.859,-23.1486 128.688,-23.3019"/>
<polygon fill="black" stroke="black" points="128.652,-26.8021 138.746,-23.5844 128.848,-19.8049 128.652,-26.8021"/>
</g>
<!-- START -->
<g id="node2" class="node"><title>START</title>
<ellipse fill="black" stroke="black" cx="2" cy="-30" rx="1.8" ry="1.8"/>
</g>
<!-- START&#45;&gt;Idle -->
<g id="edge2" class="edge"><title>START&#45;&gt;Idle</title>
<path fill="none" stroke="black" d="M4.14555,-30C7.50832,-30 17.8386,-30 29.2946,-30"/>
<polygon fill="black" stroke="black" points="29.5048,-33.5001 39.5048,-30 29.5048,-26.5001 29.5048,-33.5001"/>
</g>
<!-- Action&#45;&gt;Idle -->
<g id="edge6" class="edge"><title>Action&#45;&gt;Idle</title>
<path fill="none" stroke="black" d="M138.746,-36.4156C129.431,-36.8006 119.277,-36.8531 109.733,-36.5734"/>
<polygon fill="black" stroke="black" points="109.826,-33.0742 99.6841,-36.1393 109.524,-40.0677 109.826,-33.0742"/>
</g>
</g>
</svg>
